<?xml version="1.0" encoding="iso-8859-1"?>
<!-- Generator: Adobe Illustrator 19.0.0, SVG Export Plug-In . SVG Version: 6.00 Build 0)  -->
<svg version="1.1" id="Layer_1" xmlns="http://www.w3.org/2000/svg" xmlns:xlink="http://www.w3.org/1999/xlink" x="0px" y="0px"
	 viewBox="0 0 318.188 318.188" style="enable-background:new 0 0 318.188 318.188;" xml:space="preserve">
<g>
	<polygon style="fill:#E8E8E8;" points="227.321,7.5 40.342,7.5 40.342,310.688 277.846,310.688 277.846,58.025 	"/>
	<g>
		<rect x="98.402" y="69.204" style="fill:#38A3FF;" width="119.89" height="119.89"/>
		<polygon style="fill:#007934;" points="192.295,130.178 168.483,170.358 129.743,104.984 98.402,157.872 98.402,189.093 
			218.292,189.093 218.292,174.049 		"/>
		<g>
			<path style="fill:#FFFFFF;" d="M195.29,115.571c-5.439-15.665-20.24-26.19-36.832-26.19c-16.601,0-30.803,10.436-36.412,25.089
				l-0.255-0.542c-1.017-2.161-3.592-3.087-5.753-2.072c-2.16,1.017-3.088,3.592-2.072,5.753l5.924,12.591
				c0.584,1.242,1.723,2.132,3.068,2.4c0.281,0.056,0.563,0.083,0.844,0.083c1.066,0,2.106-0.394,2.909-1.125l10.295-9.362
				c1.767-1.606,1.896-4.341,0.29-6.107c-1.606-1.767-4.341-1.896-6.107-0.29l-0.558,0.508
				c4.671-10.744,15.384-18.278,27.827-18.278c12.912,0,24.431,8.189,28.663,20.379c0.784,2.257,3.249,3.449,5.502,2.667
				C194.879,120.291,196.073,117.827,195.29,115.571z"/>
			<path style="fill:#FFFFFF;" d="M202.95,139.111l-5.924-12.592c-0.584-1.241-1.723-2.132-3.068-2.4
				c-1.347-0.269-2.739,0.118-3.753,1.042l-10.295,9.362c-1.767,1.606-1.896,4.341-0.29,6.107c1.606,1.767,4.341,1.896,6.107,0.29
				l0.558-0.508c-4.671,10.744-15.384,18.278-27.827,18.278c-12.912,0-24.431-8.189-28.663-20.379
				c-0.783-2.256-3.248-3.449-5.502-2.667c-2.256,0.783-3.45,3.247-2.667,5.502c5.439,15.665,20.24,26.19,36.832,26.19
				c16.601,0,30.803-10.436,36.412-25.089l0.255,0.542c0.737,1.566,2.292,2.484,3.916,2.484c0.617,0,1.243-0.132,1.838-0.412
				C203.038,143.848,203.966,141.272,202.95,139.111z"/>
		</g>
	</g>
	<polygon style="fill:#38A3FF;" points="235.14,32.763 40.342,32.763 40.342,7.5 227.321,7.5 	"/>
	<polygon style="fill:#D1D3D3;" points="227.321,58.025 277.846,58.025 227.321,7.5 	"/>
	<path style="fill:#333E48;" d="M158.594,281.371h13.028v-47.979h-13.028V281.371z M283.149,52.722L232.625,2.197
		C231.218,0.79,229.311,0,227.321,0H40.342c-4.142,0-7.5,3.358-7.5,7.5v303.188c0,4.142,3.358,7.5,7.5,7.5h237.504
		c4.142,0,7.5-3.358,7.5-7.5V58.025C285.346,56.036,284.556,54.129,283.149,52.722z M234.821,25.606l24.918,24.919h-24.918
		L234.821,25.606L234.821,25.606z M47.842,15h171.979v10.263H47.842V15z M270.346,303.188H47.842V40.263h171.979v17.763
		c0,4.142,3.358,7.5,7.5,7.5h43.024v237.662H270.346z M181.993,281.371h12.766v-18.017h14.374v-10.403h-14.374v-9.156h15.589
		v-10.403h-28.354v47.979H181.993z M128.106,263.289h8.565v7.515c-1.62,0.373-3.392,0.558-5.316,0.558
		c-3.523,0-6.219-1.176-8.09-3.528c-1.871-2.352-2.806-5.771-2.806-10.256c0-4.572,1.034-8.089,3.101-10.551
		c2.067-2.461,4.994-3.692,8.779-3.692c4.135,0,7.931,0.854,11.388,2.56l4.103-10.174c-1.992-0.875-4.327-1.597-7.007-2.166
		c-2.68-0.568-5.53-0.853-8.549-0.853c-7.964,0-14.155,2.155-18.575,6.465c-4.419,4.311-6.629,10.338-6.629,18.083
		c0,7.942,2.018,14.058,6.055,18.345c4.037,4.288,9.752,6.432,17.147,6.432c6.738,0,12.918-0.962,18.542-2.888v-25.86h-20.708
		L128.106,263.289L128.106,263.289z"/>
</g>
<g>
</g>
<g>
</g>
<g>
</g>
<g>
</g>
<g>
</g>
<g>
</g>
<g>
</g>
<g>
</g>
<g>
</g>
<g>
</g>
<g>
</g>
<g>
</g>
<g>
</g>
<g>
</g>
<g>
</g>
</svg>
